<svg width="600" height="520" viewBox="0 0 600 520" fill="none" xmlns="http://www.w3.org/2000/svg">
<rect width="291.88" height="291.88" rx="24" transform="matrix(-0.462048 -0.886855 0.886376 -0.462966 335.393 400.5)" fill="#F2F6FF"/>
<rect width="270.81" height="270.81" rx="24" transform="matrix(-0.337602 -0.941289 0.940939 -0.338576 98.4258 509.6)" fill="#E5EEFF"/>
<path d="M478.435 126.044C479.226 126.829 479.671 127.896 479.672 129.01L479.975 444.56C479.977 446.869 478.106 448.743 475.797 448.745L447.672 448.772L447.688 465.516C447.69 467.825 445.82 469.699 443.51 469.702L136.815 469.992C134.506 469.994 132.633 468.123 132.631 465.814L132.271 91.3555C132.269 89.0462 134.139 87.1723 136.448 87.1699L164.574 87.1432L164.558 70.3991C164.556 68.09 166.425 66.2159 168.734 66.2135L417.836 65.9777L478.435 126.044Z" fill="#CCDDFF"/>
<path d="M120.383 449.898L120.024 75.4393C120.021 73.1299 121.892 71.256 124.201 71.2539L373.302 71.0181L433.9 131.084C434.692 131.868 435.137 132.936 435.138 134.05L435.441 449.6C435.443 451.909 433.573 453.783 431.264 453.785L124.568 454.076C122.259 454.078 120.385 452.207 120.383 449.898Z" fill="white"/>
<path d="M374.537 71.0169L373.302 71.0181M373.302 71.0181L124.201 71.2539C121.892 71.256 120.021 73.1299 120.024 75.4393L120.383 449.898C120.385 452.207 122.259 454.078 124.568 454.076L431.264 453.785C433.573 453.783 435.443 451.909 435.441 449.6L435.138 134.05C435.137 132.936 434.692 131.868 433.9 131.084L373.302 71.0181Z" stroke="#D1D1D1" stroke-width="2.84156"/>
<path d="M152.669 428.935L152.31 54.4764C152.307 52.167 154.178 50.2931 156.487 50.291L405.588 50.0552L466.187 110.121C466.978 110.905 467.423 111.973 467.424 113.087L467.727 428.637C467.729 430.946 465.859 432.82 463.55 432.822L156.855 433.113C154.545 433.115 152.671 431.245 152.669 428.935Z" fill="white"/>
<path d="M406.823 50.054L405.588 50.0552M405.588 50.0552L156.487 50.291C154.178 50.2931 152.307 52.167 152.31 54.4764L152.669 428.935C152.671 431.244 154.545 433.115 156.855 433.113L463.55 432.822C465.859 432.82 467.729 430.946 467.727 428.637L467.424 113.087C467.423 111.973 466.978 110.905 466.187 110.121L405.588 50.0552Z" stroke="#D1D1D1" stroke-width="2.84156"/>
<path opacity="0.6" d="M415.557 374.441C416.131 374.441 416.597 374.906 416.597 375.481L416.597 378.476C416.597 379.05 416.131 379.516 415.557 379.516L188.958 379.516C188.384 379.515 187.919 379.05 187.919 378.475L187.919 375.48C187.919 374.906 188.384 374.441 188.958 374.44L415.557 374.441ZM415.557 360.504C416.132 360.504 416.598 360.97 416.598 361.544L416.597 364.539C416.597 365.113 416.132 365.579 415.557 365.579L188.959 365.579C188.385 365.579 187.919 365.113 187.919 364.539L187.919 361.544C187.919 360.97 188.385 360.504 188.959 360.504L415.557 360.504ZM415.557 346.954C416.131 346.954 416.597 347.42 416.597 347.994L416.597 350.989C416.597 351.564 416.131 352.03 415.557 352.03L188.958 352.029C188.384 352.029 187.919 351.563 187.919 350.989L187.919 347.994C187.919 347.42 188.384 346.954 188.958 346.954L415.557 346.954ZM415.557 333.009C416.132 333.009 416.598 333.475 416.598 334.049L416.597 337.044C416.597 337.618 416.132 338.084 415.557 338.084L188.959 338.084C188.385 338.084 187.919 337.618 187.919 337.044L187.919 334.049C187.919 333.475 188.385 333.009 188.959 333.009L415.557 333.009ZM415.558 316.989C416.132 316.99 416.597 317.455 416.597 318.03L416.597 321.025C416.597 321.599 416.132 322.064 415.558 322.065L188.959 322.064C188.385 322.064 187.919 321.599 187.919 321.024L187.919 318.029C187.919 317.455 188.385 316.989 188.959 316.989L415.558 316.989ZM415.557 303.059C416.131 303.059 416.597 303.525 416.597 304.099L416.597 307.094C416.597 307.668 416.131 308.134 415.557 308.134L188.959 308.134C188.385 308.134 187.919 307.668 187.919 307.094L187.919 304.098C187.919 303.524 188.385 303.058 188.959 303.058L415.557 303.059ZM415.557 289.122C416.132 289.122 416.597 289.588 416.597 290.162L416.597 293.157C416.597 293.732 416.132 294.197 415.557 294.197L188.959 294.197C188.384 294.197 187.919 293.731 187.919 293.157L187.92 290.162C187.92 289.588 188.384 289.122 188.959 289.122L415.557 289.122ZM415.557 275.567C416.131 275.567 416.597 276.032 416.597 276.607L416.597 279.602C416.597 280.176 416.131 280.642 415.557 280.642L188.959 280.641C188.385 280.641 187.919 280.176 187.919 279.601L187.919 276.606C187.919 276.032 188.385 275.566 188.959 275.566L415.557 275.567ZM415.557 261.627C416.132 261.627 416.597 262.093 416.597 262.667L416.597 265.662C416.597 266.236 416.131 266.702 415.557 266.702L188.959 266.702C188.384 266.702 187.919 266.236 187.919 265.662L187.92 262.667C187.92 262.093 188.384 261.627 188.959 261.627L415.557 261.627ZM415.558 245.613C416.132 245.614 416.597 246.079 416.597 246.653L416.598 249.649C416.598 250.223 416.132 250.689 415.558 250.689L188.959 250.688C188.385 250.688 187.919 250.222 187.919 249.648L187.919 246.653C187.919 246.079 188.385 245.613 188.959 245.613L415.558 245.613ZM415.557 231.674C416.131 231.674 416.597 232.14 416.597 232.714L416.597 235.709C416.597 236.283 416.131 236.749 415.557 236.749L188.959 236.749C188.385 236.749 187.919 236.283 187.919 235.709L187.919 232.714C187.919 232.139 188.385 231.674 188.959 231.674L415.557 231.674ZM415.557 217.737C416.131 217.737 416.597 218.203 416.597 218.778L416.597 221.773C416.597 222.347 416.131 222.813 415.557 222.813L188.958 222.812C188.384 222.812 187.919 222.346 187.919 221.772L187.919 218.777C187.919 218.203 188.384 217.737 188.958 217.737L415.557 217.737ZM415.556 204.399C416.13 204.399 416.595 204.864 416.595 205.439L416.596 208.434C416.596 209.008 416.13 209.474 415.556 209.474L188.957 209.473C188.383 209.473 187.917 209.008 187.917 208.433L187.917 205.438C187.917 204.864 188.383 204.398 188.957 204.398L415.556 204.399ZM415.555 190.453C416.13 190.453 416.595 190.919 416.595 191.493L416.595 194.488C416.595 195.063 416.13 195.528 415.555 195.528L188.958 195.528C188.383 195.528 187.918 195.062 187.918 194.488L187.918 191.493C187.918 190.919 188.383 190.453 188.958 190.453L415.555 190.453ZM415.556 174.44C416.13 174.44 416.596 174.905 416.596 175.48L416.596 178.475C416.596 179.049 416.13 179.515 415.556 179.515L188.957 179.514C188.383 179.514 187.918 179.048 187.918 178.474L187.918 175.479C187.918 174.905 188.383 174.439 188.957 174.439L415.556 174.44ZM415.556 160.509C416.13 160.509 416.596 160.975 416.596 161.549L416.596 164.544C416.596 165.118 416.13 165.584 415.556 165.584L188.957 165.584C188.383 165.584 187.917 165.118 187.917 164.544L187.917 161.549C187.917 160.974 188.383 160.509 188.957 160.509L415.556 160.509ZM415.556 146.569C416.13 146.57 416.595 147.035 416.595 147.61L416.595 150.605C416.595 151.179 416.13 151.644 415.556 151.645L188.957 151.644C188.383 151.644 187.917 151.179 187.917 150.604L187.917 147.609C187.918 147.035 188.383 146.569 188.958 146.569L415.556 146.569ZM262.953 100.28C263.527 100.28 263.993 100.746 263.993 101.32L263.993 104.638C263.993 105.212 263.528 105.677 262.953 105.677L188.957 105.677C188.383 105.676 187.917 105.212 187.917 104.637L187.918 101.32C187.918 100.746 188.383 100.28 188.957 100.28L262.953 100.28Z" fill="#BABABA"/>
<path d="M405.662 111.408L405.604 50.0586L467.438 111.35L405.662 111.408Z" fill="#D1D1D1"/>
<path fill-rule="evenodd" clip-rule="evenodd" d="M541.71 460.14C540.763 459.193 540.763 457.658 541.71 456.71C542.657 455.763 544.192 455.763 545.139 456.71L550.282 461.855C551.229 462.803 551.229 464.338 550.282 465.285C549.335 466.233 547.8 466.233 546.853 465.285L541.71 460.14ZM553.713 472.145C552.766 471.197 552.766 469.662 553.713 468.715C554.66 467.767 556.195 467.767 557.142 468.715L562.285 473.86C563.232 474.807 563.232 476.342 562.285 477.29C561.338 478.237 559.803 478.237 558.856 477.29L553.713 472.145ZM541.71 477.29C542.657 478.237 544.192 478.237 545.139 477.29L550.282 472.145C551.229 471.197 551.229 469.662 550.282 468.715C549.335 467.767 547.8 467.767 546.853 468.715L541.71 473.86C540.763 474.807 540.763 476.342 541.71 477.29ZM557.147 465.286C556.2 466.233 554.665 466.233 553.718 465.286C552.771 464.339 552.771 462.803 553.718 461.856L558.861 456.711C559.808 455.764 561.343 455.764 562.29 456.711C563.237 457.658 563.237 459.194 562.29 460.141L557.147 465.286Z" fill="#3D99F5"/>
<path fill-rule="evenodd" clip-rule="evenodd" d="M516 489C516 495.075 511.075 500 505 500C498.925 500 494 495.075 494 489C494 482.925 498.925 478 505 478C511.075 478 516 482.925 516 489ZM499.501 489C499.501 492.038 501.963 494.5 505.001 494.5C508.038 494.5 510.501 492.038 510.501 489C510.501 485.962 508.038 483.5 505.001 483.5C501.963 483.5 499.501 485.962 499.501 489Z" fill="#FF5975"/>
<path fill-rule="evenodd" clip-rule="evenodd" d="M36.7101 54.1404C35.7633 53.1932 35.7633 51.6576 36.7101 50.7104C37.657 49.7632 39.1921 49.7632 40.139 50.7104L45.2822 55.8554C46.229 56.8026 46.229 58.3382 45.2822 59.2854C44.3353 60.2326 42.8002 60.2326 41.8534 59.2854L36.7101 54.1404ZM48.7132 66.1446C47.7664 65.1974 47.7664 63.6617 48.7132 62.7145C49.66 61.7674 51.1952 61.7674 52.142 62.7145L57.2853 67.8596C58.2321 68.8067 58.2321 70.3424 57.2853 71.2896C56.3384 72.2368 54.8033 72.2368 53.8564 71.2896L48.7132 66.1446ZM36.7101 71.2896C37.657 72.2368 39.1921 72.2368 40.139 71.2896L45.2822 66.1446C46.229 65.1974 46.229 63.6617 45.2822 62.7145C44.3353 61.7674 42.8002 61.7674 41.8534 62.7145L36.7101 67.8596C35.7633 68.8067 35.7633 70.3424 36.7101 71.2896ZM52.1467 59.2858C51.1999 60.233 49.6647 60.233 48.7179 59.2858C47.7711 58.3387 47.7711 56.803 48.7179 55.8559L53.861 50.7108C54.8079 49.7637 56.343 49.7637 57.2899 50.7108C58.2367 51.658 58.2367 53.1936 57.2899 54.1408L52.1467 59.2858Z" fill="#3D99F5"/>
<path fill-rule="evenodd" clip-rule="evenodd" d="M94 32C94 38.0751 89.0751 43 83 43C76.9249 43 72 38.0751 72 32C72 25.9249 76.9249 21 83 21C89.0751 21 94 25.9249 94 32ZM77.5009 32C77.5009 35.0376 79.9633 37.5 83.0009 37.5C86.0384 37.5 88.5009 35.0376 88.5009 32C88.5009 28.9625 86.0384 26.5001 83.0009 26.5001C79.9633 26.5001 77.5009 28.9625 77.5009 32Z" fill="#FF5975"/>
<rect x="354" y="272" width="63" height="13" fill="#FFB700"/>
<rect x="218" y="173" width="63" height="13" fill="#FFB700"/>
<rect x="323" y="142" width="63" height="13" fill="#FFB700"/>
<rect x="287" y="298" width="63" height="13" fill="#FFB700"/>
<rect x="346" y="345" width="63" height="13" fill="#FFB700"/>
<path d="M45 344C45 335.163 52.1634 328 61 328H271C279.837 328 287 335.163 287 344V404.368C287 413.205 279.837 420.368 271 420.368H127.124L91.1647 436V420.368H61C52.1634 420.368 45 413.205 45 404.368V344Z" fill="#FF5975"/>
<path d="M196 389C198.209 389 200 390.791 200 393V394C200 396.209 198.209 398 196 398H69C66.7909 398 65 396.209 65 394V393C65 390.791 66.7909 389 69 389H196ZM266 368C268.209 368 270 369.791 270 372V373C270 375.209 268.209 377 266 377H69C66.7909 377 65 375.209 65 373V372C65 369.791 66.7909 368 69 368H266ZM266 348C268.209 348 270 349.791 270 352V353C270 355.209 268.209 357 266 357H69C66.7909 357 65 355.209 65 353V352C65 349.791 66.7909 348 69 348H266Z" fill="white"/>
<rect x="98" y="188" width="79" height="80" rx="39.5" fill="#0055FF"/>
<path fill-rule="evenodd" clip-rule="evenodd" d="M145.224 234.149L155.5 244.425L153.925 246L143.649 235.724C141.09 237.922 137.763 239.25 134.125 239.25C126.048 239.25 119.5 232.702 119.5 224.625C119.5 216.548 126.048 210 134.125 210C142.202 210 148.75 216.548 148.75 224.625C148.75 228.263 147.422 231.59 145.224 234.149ZM134.125 237C140.96 237 146.5 231.46 146.5 224.625C146.5 217.79 140.96 212.25 134.125 212.25C127.29 212.25 121.75 217.79 121.75 224.625C121.75 231.46 127.29 237 134.125 237Z" fill="white"/>
<rect x="437" y="236" width="110" height="80" rx="8" fill="#FFF1CC"/>
<rect x="467" y="274" width="64" height="6" rx="3" fill="#0055FF"/>
<rect x="453" y="252" width="78" height="6" rx="3" fill="#6699FF"/>
<rect x="467" y="264" width="64" height="6" rx="3" fill="#0055FF"/>
<rect x="467" y="284" width="64" height="6" rx="3" fill="#0055FF"/>
<rect x="467" y="294" width="64" height="6" rx="3" fill="#0055FF"/>
<circle cx="460" cy="267" r="3" fill="#0055FF"/>
<circle cx="460" cy="277" r="3" fill="#0055FF"/>
<circle cx="460" cy="287" r="3" fill="#0055FF"/>
<circle cx="460" cy="297" r="3" fill="#0055FF"/>
<rect x="437" y="332" width="110" height="80" rx="8" fill="#FFF1CC"/>
<rect x="467" y="370" width="64" height="6" rx="3" fill="#0055FF"/>
<rect x="453" y="348" width="78" height="6" rx="3" fill="#6699FF"/>
<rect x="467" y="360" width="64" height="6" rx="3" fill="#0055FF"/>
<rect x="467" y="380" width="64" height="6" rx="3" fill="#0055FF"/>
<rect x="467" y="390" width="64" height="6" rx="3" fill="#0055FF"/>
<circle cx="460" cy="363" r="3" fill="#0055FF"/>
<circle cx="460" cy="373" r="3" fill="#0055FF"/>
<circle cx="460" cy="383" r="3" fill="#0055FF"/>
<circle cx="460" cy="393" r="3" fill="#0055FF"/>
</svg>
